<svg width="49" height="49" viewBox="0 0 49 49" fill="none" xmlns="http://www.w3.org/2000/svg">
<path d="M44.1068 20.5147L42.4959 20.5276L42.4952 20.4446L24.4958 20.5889L24.5599 28.5887L35.8625 28.4981C34.2509 33.1681 29.8469 36.5465 24.624 36.5884C17.9972 36.6415 12.5813 31.3118 12.5282 24.685C12.4751 18.0582 17.8049 12.6423 24.4316 12.5892C27.4905 12.5647 30.2827 13.6963 32.4168 15.5643L38.0282 9.86211C34.4297 6.56185 29.6354 4.54722 24.3675 4.58944C13.3229 4.67798 4.43994 13.7045 4.52848 24.7491C4.61701 35.7938 13.6435 44.6767 24.6881 44.5882C35.7328 44.4996 44.6157 35.4731 44.5272 24.4285C44.5164 23.0875 44.368 21.7797 44.1068 20.5147Z" fill="#FFC107"/>
<path d="M6.75977 15.4219L13.3692 20.188C15.1118 15.7719 19.3928 12.6295 24.4316 12.5891C27.4905 12.5646 30.2827 13.6963 32.4167 15.5642L38.0282 9.86204C34.4296 6.56178 29.6353 4.54715 24.3675 4.58937C16.6858 4.65095 10.0587 9.04121 6.75977 15.4219Z" fill="#FF3D00"/>
<path d="M24.6881 44.5882C29.8539 44.5468 34.5319 42.5322 38.0551 39.2889L31.8233 34.1006C29.7609 35.6963 27.2315 36.5703 24.624 36.5884C19.4221 36.6301 14.9787 33.3486 13.2776 28.7331L6.79614 33.8102C10.1579 40.2605 16.9154 44.6505 24.6881 44.5882Z" fill="#4CAF50"/>
<path d="M44.1068 20.5147L42.4958 20.5276L42.4951 20.4446L24.4957 20.5889L24.5599 28.5886L35.8625 28.498C35.0915 30.7207 33.6862 32.6688 31.8203 34.1016L31.8233 34.0996L38.055 39.2878C37.6203 39.6893 44.6073 34.4281 44.5271 24.4284C44.5164 23.0875 44.3679 21.7796 44.1068 20.5147Z" fill="#1976D2"/>
</svg>
