<svg width="39" height="42" viewBox="0 0 39 42" fill="none" xmlns="http://www.w3.org/2000/svg">
<path d="M29.4823 0.851268L9.29549 1.01308C4.37686 1.05251 0.423171 5.28167 0.464673 10.4592L0.635005 31.7085C0.676507 36.886 4.69749 41.0512 9.61611 41.0118L29.803 40.85C34.7216 40.8106 38.6753 36.5814 38.6338 31.4039L38.4635 10.1546C38.4219 4.97707 34.401 0.811841 29.4823 0.851268Z" fill="white"/>
<path d="M29.4823 0.851268L9.29549 1.01308C4.37686 1.05251 0.423171 5.28167 0.464673 10.4592L0.635005 31.7085C0.676507 36.886 4.69749 41.0512 9.61611 41.0118L29.803 40.85C34.7216 40.8106 38.6753 36.5814 38.6338 31.4039L38.4635 10.1546C38.4219 4.97707 34.401 0.811841 29.4823 0.851268Z" fill="#1D9BF0"/>
<path d="M30.1271 15.1296C30.1454 15.3774 30.1474 15.6254 30.1494 15.8757C30.2105 23.5 24.767 32.3373 14.6844 32.4182L14.6844 32.4135C11.7058 32.4419 8.78175 31.5673 6.26129 29.8942C6.69505 29.9454 7.13018 29.9697 7.56668 29.967C10.0354 29.9493 12.4262 29.0585 14.3547 27.4377C13.2107 27.424 12.099 27.0344 11.1751 26.3234C10.2512 25.6123 9.56116 24.6154 9.20151 23.4718C10.0241 23.632 10.8705 23.5912 11.6754 23.3526C9.11383 22.8292 7.25505 20.4789 7.23303 17.7321L7.23244 17.659C7.99835 18.0999 8.85352 18.3407 9.72596 18.3612C7.30391 16.686 6.53442 13.3191 7.96762 10.6704C9.35799 12.442 11.0867 13.8863 13.0413 14.9092C14.996 15.9322 17.133 16.511 19.3133 16.608C19.0881 15.6252 19.112 14.5975 19.3825 13.6279C19.653 12.6582 20.1607 11.7805 20.8548 11.0825C23.0451 8.88023 26.5183 8.96442 28.6123 11.2705C29.8378 11.0056 31.0112 10.5224 32.082 9.84189C31.6835 11.1812 30.8362 12.3221 29.6979 13.0523C30.7834 12.9088 31.8421 12.5941 32.8384 12.1189C32.1121 13.2845 31.194 14.3039 30.1271 15.1296Z" fill="white"/>
</svg>
