<svg width="48" height="46" viewBox="0 0 48 46" fill="none" xmlns="http://www.w3.org/2000/svg">
<g clip-path="url(#clip0_2_1133)">
<path d="M47.5178 22.5937C47.4182 10.1678 36.8164 0.178793 23.8382 0.282824C10.86 0.386856 0.419736 10.5445 0.519341 22.9705C0.609359 34.2004 9.27735 43.4397 20.525 45.0375L20.399 29.3152L14.4324 29.3631L14.3802 22.8594L20.3468 22.8115L20.3071 17.8547C20.2619 12.2158 23.7453 9.07291 29.113 9.02989C31.684 9.00928 34.3767 9.42716 34.3767 9.42716L34.4211 14.9641L31.458 14.9878C28.5388 15.0112 27.6422 16.7529 27.6565 18.5323L27.6903 22.7527L34.2077 22.7004L33.218 29.2125L27.7425 29.2564L27.8685 44.9786C39.0891 43.2008 47.6078 33.8239 47.5178 22.5937Z" fill="#1877F2"/>
<path d="M33.2179 29.2125L34.2077 22.7005L27.6903 22.7527L27.6565 18.5324C27.6422 16.7528 28.5387 15.0113 31.4579 14.9879L34.421 14.9642L34.3767 9.42722C34.3767 9.42722 31.6839 9.00934 29.1128 9.02995C23.7452 9.07298 20.2618 12.2158 20.307 17.8547L20.3468 22.8116L14.3802 22.8594L14.4323 29.3631L20.3989 29.3153L20.5249 45.0375C21.741 45.21 22.9694 45.2916 24.1989 45.2814C25.4284 45.2719 26.6553 45.1706 27.8684 44.9787L27.7424 29.2564L33.2179 29.2125Z" fill="white"/>
</g>
<defs>
<clipPath id="clip0_2_1133">
<rect width="47" height="45" fill="white" transform="translate(0.338989 0.471191) rotate(-0.459266)"/>
</clipPath>
</defs>
</svg>
