<svg width="562" height="582" viewBox="0 0 562 582" fill="none" xmlns="http://www.w3.org/2000/svg">
<g filter="url(#filter0_d_2_1157)">
<path fill-rule="evenodd" clip-rule="evenodd" d="M304.462 126.989C367.904 135.03 556.547 23.9145 547.673 101.988C525.474 139.602 453.79 288.87 461.567 338.686C468.361 382.202 499.198 445.856 492.769 488.441C486.188 532.028 403.36 611.744 402.842 547.163C347.759 555.633 299.327 506.519 242.176 497.577C183.471 488.393 112.314 529.23 69.8394 495.063C27.1443 460.72 81.3528 409.226 76.2065 364.072C71.8828 326.136 32.5528 290.405 42.3759 254.098C53.5008 212.978 87.0863 177.828 132.562 155.773C182.174 131.712 242.991 119.197 304.462 126.989Z" fill="#5AA996"/>
</g>
<defs>
<filter id="filter0_d_2_1157" x="36.8065" y="74.0369" width="515.169" height="505.431" filterUnits="userSpaceOnUse" color-interpolation-filters="sRGB">
<feFlood flood-opacity="0" result="BackgroundImageFix"/>
<feColorMatrix in="SourceAlpha" type="matrix" values="0 0 0 0 0 0 0 0 0 0 0 0 0 0 0 0 0 0 127 0" result="hardAlpha"/>
<feOffset dy="4"/>
<feGaussianBlur stdDeviation="2"/>
<feComposite in2="hardAlpha" operator="out"/>
<feColorMatrix type="matrix" values="0 0 0 0 0 0 0 0 0 0 0 0 0 0 0 0 0 0 0.3 0"/>
<feBlend mode="normal" in2="BackgroundImageFix" result="effect1_dropShadow_2_1157"/>
<feBlend mode="normal" in="SourceGraphic" in2="effect1_dropShadow_2_1157" result="shape"/>
</filter>
</defs>
</svg>
